<?xml version="1.0" encoding="utf-8"?>
<!-- Generator: Adobe Illustrator 24.1.2, SVG Export Plug-In . SVG Version: 6.00 Build 0)  -->
<svg version="1.1" xmlns="http://www.w3.org/2000/svg" xmlns:xlink="http://www.w3.org/1999/xlink" x="0px" y="0px"
	 viewBox="0 0 550.3 550.3" style="enable-background:new 0 0 550.3 550.3;" xml:space="preserve">
<style type="text/css">
	.st0{fill:#F7F7F7;}
	.st1{fill:#231F20;stroke:#231F20;stroke-width:2;stroke-miterlimit:10;}
	.st2{fill:none;stroke:#1C75BC;stroke-width:11;stroke-miterlimit:10;}
	.st3{fill:#1C75BC;}
	.st4{fill:none;stroke:#231F20;stroke-width:0.25;stroke-miterlimit:10;}
	.st5{fill:none;stroke:#F26522;stroke-width:11;stroke-miterlimit:10;}
	.st6{fill:#F26522;}
</style>
<g id="Layer_2">
	<rect x="0.1" y="0.1" class="st0" width="550" height="550"/>
</g>
<g id="Layer_1">
	<circle class="st1" cx="96.8" cy="109" r="42.1"/>
	<circle class="st1" cx="449.1" cy="134.6" r="42.2"/>
	<circle class="st1" cx="277.9" cy="256.1" r="42.1"/>
	<circle class="st1" cx="370.3" cy="466.6" r="42.1"/>
	<line class="st2" x1="150.6" y1="111.6" x2="347.9" y2="126.5"/>
	<polygon class="st3" points="335.8,141.6 396.5,130.2 338.3,109.8 	"/>
	<rect x="0.1" y="0.1" class="st4" width="550" height="550"/>
	<line class="st2" x1="407" y1="168" x2="362.7" y2="199.9"/>
	<polygon class="st3" points="362.2,180.6 323.2,228.5 380.9,206.5 	"/>
	<line class="st5" x1="123.2" y1="154.6" x2="299" y2="389.5"/>
	<polygon class="st6" points="279.7,390.3 328.2,428.5 305.3,371.2 	"/>
	
		<ellipse transform="matrix(0.9951 -9.853768e-02 9.853768e-02 0.9951 -46.888 17.7785)" class="st1" cx="156.5" cy="483.6" rx="42.2" ry="42.2"/>
	<line class="st5" x1="314.9" y1="468.9" x2="259.6" y2="474.4"/>
	<polygon class="st6" points="268.8,457.5 211.1,479.3 272,489.3 	"/>
</g>
</svg>
