<?xml version="1.0" encoding="utf-8"?>
<!-- Generator: Adobe Illustrator 24.1.2, SVG Export Plug-In . SVG Version: 6.00 Build 0)  -->
<svg version="1.1" xmlns="http://www.w3.org/2000/svg" xmlns:xlink="http://www.w3.org/1999/xlink" x="0px" y="0px"
	 viewBox="0 0 550.3 550.3" style="enable-background:new 0 0 550.3 550.3;" xml:space="preserve">
<style type="text/css">
	.st0{fill:#F7F7F7;}
	.st1{fill:#231F20;stroke:#231F20;stroke-width:2;stroke-miterlimit:10;}
	.st2{fill:none;stroke:#009444;stroke-width:11;stroke-miterlimit:10;}
	.st3{fill:#009444;}
	.st4{fill:none;stroke:#231F20;stroke-width:0.25;stroke-miterlimit:10;}
</style>
<g id="Layer_2">
	<rect x="0.1" y="0.1" class="st0" width="550" height="550"/>
</g>
<g id="Layer_1">
	<circle class="st1" cx="96.8" cy="109" r="42.1"/>
	<circle class="st1" cx="449.1" cy="134.6" r="42.2"/>
	<circle class="st1" cx="277.9" cy="256.1" r="42.1"/>
	<circle class="st1" cx="370.3" cy="466.6" r="42.1"/>
	<line class="st2" x1="138.9" y1="145" x2="197.7" y2="193.1"/>
	<polygon class="st3" points="179.1,198.6 235.4,224 199.4,173.9 	"/>
	<rect x="0.1" y="0.1" class="st4" width="550" height="550"/>
	
		<ellipse transform="matrix(0.9951 -9.853768e-02 9.853768e-02 0.9951 -46.888 17.7785)" class="st1" cx="156.5" cy="483.6" rx="42.2" ry="42.2"/>
	<line class="st2" x1="322.3" y1="221.3" x2="366.6" y2="191.4"/>
	<polygon class="st3" points="366.5,210.8 407,164.2 348.6,184.3 	"/>
	<line class="st2" x1="250.3" y1="304.3" x2="205.6" y2="392.1"/>
	<polygon class="st3" points="196.3,375.2 183.6,435.6 224.8,389.7 	"/>
	<line class="st2" x1="210.3" y1="479.6" x2="268.2" y2="475.3"/>
	<polygon class="st3" points="258.5,492 316.8,471.7 256.1,460.2 	"/>
</g>
</svg>
